<svg xml:space="preserve" width="84" height="39.062" xmlns="http://www.w3.org/2000/svg"><path d="m58.535 0-8.296 18.705H34.606L42.903.038h15.632ZM25.58 0l-8.296 18.705h15.632L41.213.038H25.58ZM8.335 0 0 18.705h15.632L23.93.038H8.335Zm8.258 20.395L8.296 39.062H23.93l8.296-18.667zm17.245 0-8.296 18.667h15.632l8.297-18.667zm17.284 0-8.335 18.667H58.42l8.296-18.667zm17.246 0L60.07 39.062h15.633L84 20.395Z" style="fill:#009;stroke:none"/><path d="m29.267 13.827 2.075-4.686h2.995l-3.15 7.183c-6.298-1.23-8.68-4.072-7.258-7.298 1.613-3.649 7.374-6.107 13.673-7.26l-.691 1.537c-1.805.423-8.335 1.882-9.986 5.685-.922 2.035-.077 3.572 2.342 4.84m28.077 10.907c.615 0 1.076.23 1.383.692.538.806.346 2.266-.46 4.148-1.537 3.418-3.842 4.993-5.34 4.993-.614 0-1.114-.23-1.382-.691-.538-.807-.385-2.228.422-3.995 1.306-3.073 3.495-5.147 5.377-5.147zM51.506 36.72c2.458 0 4.494-1.46 5.8-2.65 1.421-1.345 2.689-3.112 3.418-4.763 1.114-2.497 1.306-4.494.538-5.646-.5-.768-1.383-1.152-2.612-1.152-3.802 0-7.566 3.956-9.218 7.643-.999 2.304-1.152 4.263-.422 5.416.499.768 1.344 1.152 2.496 1.152z" style="fill:#ea650d;stroke:none"/><path d="m38.562 16.4.692-1.536c1.805-.422 8.334-1.882 9.986-5.684.883-1.998.038-3.534-2.381-4.801l-3.15 7.105h-2.996l4.225-9.64c6.3 1.229 8.68 4.071 7.26 7.297-1.575 3.65-7.337 6.107-13.636 7.26m-26.54-2.574c-2.42-1.306-3.265-2.804-2.381-4.8 1.69-3.803 8.18-5.263 9.986-5.685l.691-1.537c-6.299 1.152-12.06 3.61-13.673 7.26-1.421 3.264.96 6.068 7.259 7.297l3.15-7.182h-2.996l-2.036 4.647m8.258 20.395c-2.42-1.306-3.265-2.804-2.382-4.8 1.652-3.803 8.182-5.301 9.987-5.685l.691-1.537c-6.299 1.153-12.06 3.61-13.673 7.26-1.422 3.264.96 6.068 7.259 7.297l3.15-7.182h-2.996l-2.036 4.647m19.012 2.151c.346-.806 2.343-5.262 2.42-5.454l.883-1.959c.192-.46 2.305-4.993 2.843-6.145H43.17c-.307.691-1.651 3.764-1.805 4.11l-.614 1.305h-5.416l.5-1.037c.153-.307 1.613-3.456 2.035-4.378h-2.304c-.346.883-2.382 5.454-2.497 5.684l-.96 2.113c-.154.345-2.036 4.494-2.65 5.761h2.266c.307-.73 1.69-3.84 2.074-4.686l.614-1.267h5.3l-.767 1.805c-.116.307-1.46 3.15-1.96 4.148zm33.032-.077h2.65c-.346-1.075-2.074-5.53-2.19-6.145 2.036-1.19 4.494-3.15 4.917-4.033.346-.768.5-1.383.154-1.997-.346-.576-1.191-.845-2.497-1.037-1.344-.192-3.342-.27-4.801-.27-.307.807-2.074 4.648-2.266 5.07l-.73 1.614-.192.46c-.653 1.384-2.458 5.378-2.996 6.454h2.535a445.8 445.8 0 0 1 2.65-5.915l2.689-5.8h.115c1.114 0 1.882.269 2.19.73.268.384.23.883-.039 1.46-.73 1.612-2.727 2.765-3.649 3.225z" style="fill:#fff;stroke:none"/></svg>
