<svg version="1.1" x="0" y="0" xml:space="preserve" width="108" height="60.722" xmlns="http://www.w3.org/2000/svg"><style type="text/css">.st0{fill:#009}</style><path class="st0" style="fill:#fff;stroke:none" d="M72.523 0H53.155L42.876 23.175h19.369z"/><path class="st0" style="fill:#fff;stroke:none" d="M51.061 0H31.693L21.414 23.175h19.369z"/><path class="st0" style="fill:#fff;stroke:none" d="M29.695 0H10.326L0 23.175h19.416z"/><path class="st0" style="fill:#fff;stroke:none" d="M39.926 25.269H20.558l-10.28 23.128h19.369z"/><path class="st0" style="fill:#fff;stroke:none" d="M61.293 25.269H41.925l-10.28 23.128h19.369z"/><path class="st0" style="fill:#fff;stroke:none" d="M82.707 25.269H63.34L53.06 48.397h19.368z"/><path class="st0" style="fill:#fff;stroke:none" d="M104.074 25.269H84.706l-10.28 23.128h19.37z"/><path class="st0" d="M32.597 60.674c-.57-.952-2.379-5.044-2.426-5.282v-.095h-.191l-.047.095c-.096.19-.476 1-.905 1.951-.618 1.285-1.284 2.76-1.475 3.14h-1.19c.334-.713 1.238-2.521 1.952-3.997l.618-1.332c.666-1.38 1.237-2.617 1.57-3.188.572 1.094 2.285 4.901 2.428 5.282l.095.285.143-.285c.19-.476 1.95-4.378 2.284-5.092h1.237c-.38.714-1.095 2.237-1.904 3.95a155.8 155.8 0 0 1-2.189 4.568" style="fill:#fff;stroke:none"/><path class="st0" d="M37.261 60.531c.38-.809 1.333-2.902 1.523-3.33l.714-1.619c.047-.143 1.237-2.807 1.475-3.33h3.569l-.571 1.094c-.238 0-.81 0-1.285.047h-.857l-1.094 2.475h.19c.143 0 1.047-.048 1.618-.095l-.523 1.19h-1.81l-1.046 2.331h1.046c.524 0 .905 0 1.19-.047l-.523 1.284c-.286-.047-3.236 0-3.617 0" style="fill:#fff;stroke:none"/><path class="st0" d="M54.82 60.531c.334-.666 1.048-2.331 1.476-3.283l.761-1.666c.048-.143 1.238-2.807 1.476-3.33h3.521l-.57 1.094c-.239 0-.81 0-1.286.047h-.856l-1.095 2.475h.19c.143 0 1.047-.048 1.618-.095l-.57 1.19H57.77l-1.047 2.331h1.048c.524 0 .904 0 1.19-.047l-.523 1.284H54.82" style="fill:#fff;stroke:none"/><path class="st0" d="M62.53 60.531c.333-.713 1.38-3.093 1.76-3.95l.572-1.237c.143-.285 1.142-2.617 1.332-3.093.81 0 1.951 0 2.713.143.618.095 1.047.333 1.237.666.143.286.143.666-.095 1.142-.38.857-1.142 1.666-2.332 2.38l-.095.047v.095c.048.143.143.667.238 1.285.19.952.38 2.094.476 2.522H66.67a100.26 100.26 0 0 1-.238-1.903c-.095-.762-.19-1.856-.238-2.19.524-.285 1.666-.713 2.094-1.712.19-.381.19-.714 0-.952-.19-.286-.618-.428-1.237-.476h-.095l-1.57 3.617c-.191.38-1.333 3.093-1.571 3.664z" style="fill:#fff;stroke:none"/><path class="st0" d="M71.524 60.531c.38-.713 1.142-2.522 1.523-3.33l.714-1.666c.047-.143 1.237-2.808 1.427-3.331h1.428c-.286.666-1.237 2.712-1.856 4.092L73.475 59.2h.286c.333 0 1.19 0 1.903-.048l-.761 1.333h-1c-.809.047-1.903.047-2.379.047" style="fill:#fff;stroke:none"/><path class="st0" d="M94.652 60.722c-.571-.952-2.38-5.045-2.427-5.283v-.095h-.191l-.047.095c-.048.143-.333.762-.714 1.57-.619 1.333-1.38 3.094-1.57 3.522h-1.238a228.73 228.73 0 0 1 1.951-3.997l.429-.857c.761-1.522 1.427-2.998 1.76-3.664.571 1.095 2.285 4.902 2.427 5.282l.096.286.142-.286c.19-.475 1.999-4.378 2.38-5.139h1.142c-.19.333-.429.857-.714 1.475a449.98 449.98 0 0 1-1.19 2.522c-1.047 1.999-1.95 3.902-2.236 4.569" style="fill:#fff;stroke:none"/><path class="st0" d="m49.443 53.488-2.474 5.616.238-.048c1.856-.285 3.76-1.665 4.473-3.283.286-.667.286-1.19.048-1.57-.333-.477-1.047-.715-2.142-.715zm-4.568 7.091c.38-.857 1.523-3.379 1.713-3.712l.666-1.523c0-.047 1.143-2.57 1.38-3.14 1 0 2.142.047 2.998.19.952.19 1.57.523 1.856 1.047.334.666.096 1.475-.095 1.856-1.713 3.76-5.948 5.234-8.518 5.282" style="fill:#fff;stroke:none"/><path class="st0" d="M83.85 54.63a91.94 91.94 0 0 0-1.904 2.285l-.524.618 2.522-.142v-.096c0-.238.048-.761.048-1.237 0-.523.048-1.094.048-1.285v-.38zm-4.807 5.854H77.71c.381-.429 1.047-1.237 1.904-2.19 1.999-2.283 4.664-5.377 5.615-6.424.048 1.095.143 3.046.238 4.807.095 1.665.143 3.188.19 3.807h-1.665c0-.714-.048-1.761-.048-1.951v-.095l-3.426.19c.048.047-1 1.285-1.475 1.856" style="fill:#fff;stroke:none"/><path class="st0" d="m103.74 53.488-2.474 5.616.238-.048c1.856-.285 3.76-1.665 4.473-3.283.286-.667.286-1.19.048-1.57-.333-.477-1.047-.715-2.141-.715zm-4.52 7.139c.428-.857 1.57-3.427 1.713-3.712l.666-1.523c0-.048 1.143-2.57 1.38-3.14 1 0 2.142.047 2.998.19.952.19 1.57.523 1.856 1.046.333.667.096 1.476-.095 1.856-1.76 3.76-5.948 5.187-8.518 5.283" style="fill:#fff;stroke:none"/><path d="m47.778 20.32.856-1.904c2.237-.523 10.327-2.331 12.373-7.043 1.095-2.474.048-4.378-2.95-5.948l-3.902 8.804h-3.712l5.234-11.945c7.805 1.523 10.755 5.044 8.994 9.042-1.95 4.52-9.089 7.566-16.893 8.994m-32.883-3.188c-2.998-1.618-4.045-3.474-2.95-5.949 2.093-4.711 10.136-6.52 12.372-7.043l.857-1.903C17.369 3.664 10.23 6.71 8.233 11.23c-1.761 4.045 1.19 7.518 8.994 9.041l3.902-8.899h-3.664l-2.57 5.759M25.126 42.4c-2.998-1.618-4.045-3.474-2.95-5.949 2.094-4.711 10.136-6.52 12.373-7.043l.856-1.903c-7.804 1.427-14.942 4.473-16.941 8.994-1.76 4.045 1.19 7.518 8.994 9.041l3.902-8.899h-3.712L25.126 42.4m23.556 2.664c.428-.999 2.903-6.52 2.998-6.757l1.095-2.427c.238-.571 2.855-6.186 3.521-7.614h-2.808c-.38.857-2.046 4.664-2.236 5.092l-.762 1.618h-6.71l.62-1.285c.19-.38 1.998-4.283 2.521-5.425h-2.855c-.428 1.095-2.95 6.757-3.093 7.043l-1.142 2.617c-.19.429-2.522 5.568-3.284 7.138h2.808c.38-.904 2.094-4.758 2.57-5.805l.761-1.57h6.567l-.952 2.236c-.142.38-1.808 3.902-2.427 5.14zm40.973-.095h3.283c-.428-1.332-2.57-6.852-2.712-7.614 2.522-1.475 5.568-3.902 6.091-4.996.428-.952.619-1.714.19-2.475-.428-.714-1.475-1.047-3.093-1.285-1.665-.238-4.14-.333-5.948-.333-.38 1-2.57 5.758-2.808 6.282l-.904 1.998-.238.571c-.809 1.713-3.045 6.663-3.712 7.995h3.141c.428-1 2.855-6.424 3.284-7.328l3.33-7.186h.144c1.38 0 2.331.333 2.712.904.333.476.286 1.094-.048 1.808-.904 1.999-3.378 3.427-4.52 3.998zM36.309 17.132l2.57-5.806h3.712l-3.902 8.899c-7.805-1.523-10.755-5.045-8.994-9.042 1.998-4.52 9.136-7.566 16.94-8.994l-.856 1.904c-2.236.523-10.326 2.331-12.373 7.042-1.19 2.523-.142 4.426 2.903 5.997m34.74 13.514c.76 0 1.332.286 1.712.857.667 1 .429 2.808-.57 5.14-1.904 4.235-4.76 6.186-6.615 6.186-.762 0-1.38-.286-1.714-.857-.666-1-.475-2.76.524-4.949 1.618-3.807 4.378-6.377 6.662-6.377zm-7.234 14.848c3.046 0 5.568-1.809 7.186-3.284 1.76-1.665 3.33-3.854 4.235-5.9 1.38-3.094 1.618-5.568.666-6.996-.618-.952-1.713-1.428-3.236-1.428-4.711 0-9.375 4.902-11.42 9.47-1.238 2.855-1.428 5.282-.524 6.71.618.952 1.665 1.428 3.093 1.428z" style="fill:#009;stroke:none"/></svg>
