<svg xmlns="http://www.w3.org/2000/svg" viewBox="0 0 218.7 101.6" style="enable-background:new 0 0 218.7 101.6" xml:space="preserve"><path d="m152.4-.1-21.6 48.7H90.1L111.7 0h40.7v-.1zm-85.8 0L45 48.6h40.7L107.3 0H66.6v-.1zm-44.9 0L0 48.6h40.7L62.3 0H21.7v-.1zM43.2 53l-21.6 48.6h40.7L83.9 53H43.2zm44.9 0-21.6 48.6h40.7L128.8 53H88.1zm45 0-21.7 48.6h40.7L173.7 53h-40.6zm44.9 0-21.6 48.6h40.7L218.7 53H178z" style="fill:#009"/><path d="m76.2 35.9 5.4-12.2h7.8l-8.2 18.7c-16.4-3.2-22.6-10.6-18.9-19 4.2-9.5 19.2-15.9 35.6-18.9l-1.8 4c-4.7 1.1-21.7 4.9-26 14.8-2.4 5.3-.2 9.3 6.1 12.6m73.1 28.4c1.6 0 2.8.6 3.6 1.8 1.4 2.1.9 5.9-1.2 10.8-4 8.9-10 13-13.9 13-1.6 0-2.9-.6-3.6-1.8-1.4-2.1-1-5.8 1.1-10.4 3.4-8 9.1-13.4 14-13.4zm-15.2 31.2c6.4 0 11.7-3.8 15.1-6.9 3.7-3.5 7-8.1 8.9-12.4 2.9-6.5 3.4-11.7 1.4-14.7-1.3-2-3.6-3-6.8-3-9.9 0-19.7 10.3-24 19.9-2.6 6-3 11.1-1.1 14.1 1.3 2 3.5 3 6.5 3z" style="fill:#ea650d"/><path d="m100.4 42.6 1.8-4c4.7-1.1 21.7-4.9 26-14.8 2.3-5.2.1-9.2-6.2-12.5l-8.2 18.5H106l11-25.1c16.4 3.2 22.6 10.6 18.9 19-4.1 9.5-19.1 15.9-35.5 18.9m-69.1-6.7c-6.3-3.4-8.5-7.3-6.2-12.5 4.4-9.9 21.3-13.7 26-14.8l1.8-4c-16.4 3-31.4 9.4-35.6 18.9-3.7 8.5 2.5 15.8 18.9 19l8.2-18.7h-7.8l-5.3 12.1M52.8 89c-6.3-3.4-8.5-7.3-6.2-12.5 4.3-9.9 21.3-13.8 26-14.8l1.8-4C58 60.7 43 67.1 38.8 76.6c-3.7 8.5 2.5 15.8 18.9 19l8.2-18.7h-7.8L52.8 89m49.5 5.6c.9-2.1 6.1-13.7 6.3-14.2l2.3-5.1c.5-1.2 6-13 7.4-16h-5.9c-.8 1.8-4.3 9.8-4.7 10.7l-1.6 3.4H92l1.3-2.7c.4-.8 4.2-9 5.3-11.4h-6c-.9 2.3-6.2 14.2-6.5 14.8l-2.5 5.5c-.4.9-5.3 11.7-6.9 15h5.9c.8-1.9 4.4-10 5.4-12.2l1.6-3.3h13.8l-2 4.7c-.3.8-3.8 8.2-5.1 10.8h6zm86-.2h6.9c-.9-2.8-5.4-14.4-5.7-16 5.3-3.1 11.7-8.2 12.8-10.5.9-2 1.3-3.6.4-5.2-.9-1.5-3.1-2.2-6.5-2.7-3.5-.5-8.7-.7-12.5-.7-.8 2.1-5.4 12.1-5.9 13.2l-1.9 4.2-.5 1.2c-1.7 3.6-6.4 14-7.8 16.8h6.6c.9-2.1 6-13.5 6.9-15.4l7-15.1h.3c2.9 0 4.9.7 5.7 1.9.7 1 .6 2.3-.1 3.8-1.9 4.2-7.1 7.2-9.5 8.4l3.8 16.1z" style="fill:#fff"/><path style="fill:none" d="M-28.1-28.4h275V130h-275z"/></svg>